# xmcd
#
# Track frame offsets:
#	150
#	14080
#	46316
#	60374
#	112048
#	141738
#	175064
#	191028
#
# Disc length: 2844 seconds
#
# Revision: 1
# Processed by: cddbd v1.5.2PL0 Copyright (c) Steve Scherf et al.
# Submitted via: audiograbber 1.83.01
#
DISCID=750b1a08
DTITLE=Grateful Dead - 72-09-09A Hollywood Palladium, Hollywood CA
DYEAR=1900
DGENRE=
TTITLE0=Promised Land
TTITLE1=Sugaree
TTITLE2=Me and My Uncle
TTITLE3=Bird Song
TTITLE4=Black-Throated Wind
TTITLE5=Tennessee Jed
TTITLE6=Mexicali Blues
TTITLE7=Deal
EXTD=
EXTT0=
EXTT1=
EXTT2=
EXTT3=
EXTT4=
EXTT5=
EXTT6=
EXTT7=
PLAYORDER=
